<?xml version="1.0" standalone="no"?><!DOCTYPE svg PUBLIC "-//W3C//DTD SVG 1.1//EN" "http://www.w3.org/Graphics/SVG/1.1/DTD/svg11.dtd"><svg class="icon" width="200px" height="200.00px" viewBox="0 0 1024 1024" version="1.1" xmlns="http://www.w3.org/2000/svg"><path fill="#515151" d="M668.040192 849.123328c0-5.177344-2.036736-10.121216-5.686272-13.807616a19.48672 19.48672 0 0 0-13.838336-5.747712H375.606272a19.47648 19.47648 0 0 0-13.838336 5.747712 19.524608 19.524608 0 0 0-5.753856 13.807616v78.02368H161.096704v58.492928h701.928448v-58.492928H667.984896v-78.02368h0.055296zM902.019072 88.6784H122.042368c-15.51872-0.06144-30.430208 6.139904-41.392128 17.101824a58.63936 58.63936 0 0 0-17.13152 41.392128V693.1456c0 32.282624 26.23488 58.492928 58.523648 58.492928h779.976704a58.41408 58.41408 0 0 0 41.330688-17.101824c11.022336-10.991616 17.13152-25.878528 17.13152-41.392128V147.171328c0.06144-15.512576-6.109184-30.399488-17.071104-41.392128-11.022336-10.960896-25.878528-17.16224-41.391104-17.1008z m0 584.904704c0 10.753024-8.747008 19.500032-19.469312 19.500032H141.566976c-10.7776 0-19.524608-8.747008-19.524608-19.500032V166.639616c0-10.722304 8.747008-19.530752 19.524608-19.530752h740.982784c10.783744 0 19.530752 8.685568 19.530752 19.530752v506.943488h-0.06144z m0 0"  /><path fill="#515151" d="M604.70272 291.996672h93.104128c18.220032 0 32.991232-2.622464 34.597888 12.020736h-1.176576v2.98496h-1.216512l-1.149952 3.018752c-22.0928 4.46464-59.45344 2.003968-85.943296 2.003968-10.636288 0-26.167296-1.606656-34.665472 1.048576 3.872768 9.452544 3.738624 22.455296 7.187456 32.0768v5.96992h1.183744l1.210368 13.036544c1.936384 5.479424 2.762752 13.46048 4.793344 19.040256v6.037504h1.183744v6.01088h1.183744v5.977088h1.183744v7.052288c6.13888 17.238016 5.77536 38.772736 11.947008 56.105984 0.396288 4.006912 0.786432 8.00768 1.183744 12.048384h1.183744v6.991872c3.280896 9.358336 3.838976 21.702656 7.187456 31.08864l5.943296 37.09952c4.820992 13.553664 4.759552 30.564352 9.580544 44.084224 0.396288 4.370432 0.7936 8.699904 1.149952 13.036544 2.628608 7.483392 3.314688 17.494016 5.977088 25.043968v6.01088c0.982016 2.722816 4.10112 10.602496 2.393088 15.033344h-1.210368v3.018752h-1.183744l-1.183744 2.992128-3.576832 1.014784v1.021952h-2.366464v0.982016c-3.940352 1.216512-12.66688-1.014784-14.34112-2.003968-4.235264-2.494464-5.486592-11.194368-7.159808-16.055296v-6.003712c-2.594816-7.389184-3.382272-17.62816-6.003712-25.084928v-6.003712h-1.183744v-6.01088h-1.183744v-7.025664h-1.183744v-6.003712a63.49824 63.49824 0 0 1-3.576832-16.021504h-193.36192c-9.976832 0.295936-19.954688-0.067584-29.871104-1.014784a33.34144 33.34144 0 0 1-2.366464 12.048384v7.025664h-1.210368v5.96992h-1.183744v6.044672h-1.183744l-2.393088 19.040256c-1.970176 5.513216-2.824192 13.46048-4.793344 19.040256v6.003712l-4.793344 12.014592c-2.722816 0.9216-5.156864 2.266112-7.159808 4.040704l-11.947008-0.982016-3.54304-4.074496h-1.216512l-1.149952-3.97312h-1.210368c-1.647616-3.872768 2.622464-18.31424 3.576832-21.044224l1.183744-12.082176c3.375104-9.3184 3.90656-21.72928 7.187456-31.054848v-6.991872c1.835008-5.21728 2.951168-12.834816 4.759552-18.052096l1.216512-13.036544c5.513216-15.363072 5.251072-34.699264 10.730496-50.095104l1.183744-12.082176h1.216512l1.176576-12.995584h1.183744l1.216512-12.014592c5.547008-15.429632 5.284864-34.765824 10.73664-50.13504l1.210368-13.029376c3.288064-9.358336 3.812352-21.668864 7.12704-31.054848v-6.01088c1.970176-5.445632 2.85696-13.621248 4.793344-19.074048v-6.003712h1.176576v-6.01088a113.926144 113.926144 0 0 0 4.759552-22.059008H299.102208c-2.332672-3.018752-3.382272-0.954368-4.793344-5.02272h-1.183744l-1.176576-6.991872h1.176576v-2.98496l4.793344-3.02592c4.302848-3.54304 25.736192-1.970176 34.637824-1.970176h96.68096l16.673792-83.186688v-6.003712c3.052544-8.370176 2.924544-20.84864 13.164544-23.08096 4.598784-3.838976 21.1712-2.003968 29.84448-2.003968 28.754944 0 63.521792-2.030592 88.337408 2.003968l3.576832 4.006912h1.183744v2.003968l2.366464 1.014784v3.018752h1.210368l5.977088 37.065728c2.528256 7.187456 3.482624 16.87552 5.943296 24.062976v7.025664h1.216512l5.970944 34.0736z m-128.919552-89.191424c-0.128 8.471552-1.768448 16.935936-4.820992 25.010176v7.059456c-1.808384 5.224448-2.924544 12.808192-4.760576 18.025472v7.025664c-1.842176 5.183488-2.958336 12.834816-4.793344 18.025472v7.01952h-1.149952c-0.920576 2.562048-0.100352 4.699136-1.183744 7.025664h47.734784v-89.191424h-31.026176z m56.072192 0v89.191424h42.975232l-5.977088-27.081728-1.149952-12.014592h-1.176576l-1.216512-13.036544h-1.216512v-6.003712h-1.183744v-6.044672h-1.176576v-6.991872c-2.138112-5.875712-3.34848-11.913216-3.584-18.018304H531.85536z m-59.681792 109.21984l7.1936 7.025664h2.393088l3.576832 4.006912 4.759552 3.018752v0.982016h2.400256l8.370176 8.047616h2.36032l8.377344 8.00768c2.494464 1.540096 1.24416-1.014784 3.576832 2.036736 4.006912-1.875968 7.651328-4.269056 10.764288-7.059456l1.149952-2.003968h2.400256l8.336384-8.041472h2.42688l8.343552-8.013824h2.393088l1.216512-2.003968 7.119872-4.988928v-1.014784h-87.158784z m108.660736 15.033344l-7.187456 4.988928-2.36032 3.058688h-2.434048l-8.303616 8.00768h-2.400256l-3.610624 4.006912-4.759552 3.018752v0.982016h-2.393088l-1.183744 2.036736a37.306368 37.306368 0 0 1-9.55392 5.977088v2.003968l59.716608 44.118016v-3.018752c-2.924544-2.890752-0.887808-7.778304-2.42688-12.048384h-1.183744v-5.977088c-4.168704-11.718656-4.235264-26.456064-8.370176-38.114304v-6.037504h-1.183744c-1.376256-3.90656 0.364544-10.440704-2.36544-13.002752z m-128.945152 2.003968l-13.130752 73.176064h1.210368l3.584-4.040704h2.36032l8.403968-8.00768h2.366464l3.576832-4.006912 4.793344-2.98496v-1.021952h2.36032l8.370176-8.041472h2.366464l8.370176-8.00768h2.400256v-0.98816l5.96992-4.033536v-2.036736c-4.000768-1.808384-7.64416-4.168704-10.730496-6.959104l-1.216512-2.036736h-2.400256l-8.370176-8.00768h-2.36032v-0.98816l-3.576832-2.003968-4.827136-4.955136h-2.332672c-3.052544-1.902592-2.003968-3.872768-7.187456-5.055488z m62.075904 47.10912c-2.393088 3.448832-3.710976 2.917376-7.187456 4.988928l-8.336384 8.041472h-2.366464l-8.370176 8.047616h-2.366464l-8.403968 8.00768-3.54304 0.98816-7.153664 7.025664h-2.366464v1.014784c-3.086336 2.097152-5.251072 5.02272-9.55392 5.977088v1.014784h121.732096v-1.014784l-7.1936-4.995072-1.149952-1.9968h-2.393088l-8.336384-8.047616h-2.434048l-8.336384-8.00768h-2.393088l-8.343552-8.041472h-2.393088l-8.336384-8.013824h-2.434048v-1.014784c-2.756608-1.936384-3.610624-3.41504-8.336384-3.940352v-0.033792z m-64.47616 68.154368a36.059136 36.059136 0 0 0 8.343552 4.988928h2.393088l1.183744 2.003968h2.42688v1.014784h2.400256v0.98816h2.393088l1.183744 2.030592 7.153664 2.003968 1.183744 1.970176 7.187456 2.003968 1.183744 2.036736 7.159808 2.003968 1.176576 1.9968 7.159808 2.036736 1.210368 2.003968 4.759552 0.982016v1.021952c2.003968 0.9216 11.167744 5.351424 13.164544 4.988928v-0.982016l7.12704-2.003968 1.216512-2.003968 7.153664-2.003968 1.183744-2.003968 7.187456-2.003968 1.183744-2.030592 7.159808-1.970176 1.176576-2.036736 7.1936-2.003968 1.176576-2.003968 7.159808-2.003968 1.24416-2.003968 7.12704-1.9968 1.183744-2.036736h2.42688a35.7888 35.7888 0 0 1 8.303616-3.97312v-1.014784H449.488896z m-22.684672 16.014336a54.779904 54.779904 0 0 1-3.576832 18.05824v6.991872c-1.835008 5.21728-2.951168 12.868608-4.793344 18.05824v6.003712c-2.098176 5.842944-2.164736 14.381056-4.793344 20.062208h1.250304c2.528256-1.708032 5.317632-3.058688 8.370176-4.040704v-0.98816h2.36032v-0.982016h2.434048l1.183744-2.003968h2.36032v-0.982016l4.793344-1.021952 1.183744-2.003968 7.187456-2.030592 1.183744-1.970176 7.153664-2.036736 1.216512-2.003968 7.12704-1.970176 1.210368-2.036736 7.1936-1.9968 1.149952-2.003968 4.7872-0.98816v-1.014784h2.400256l1.216512-1.970176h2.393088v-1.014784h2.366464v-1.021952c3.018752-1.445888 6.232064-1.8688 8.336384-4.006912l-3.576832-1.014784v-0.948224h-2.434048l-1.149952-2.036736-7.187456-2.003968-1.216512-2.036736-7.119872-1.970176-1.183744-2.003968h-2.393088v-1.014784h-2.366464l-1.216512-1.970176h-2.393088v-1.014784h-2.400256v-1.055744h-2.393088l-1.149952-1.970176-7.221248-1.9968-1.183744-2.003968-7.153664-2.003968-1.183744-2.036736h-2.366464c-2.562048-1.640448-5.351424-3.018752-8.370176-3.97312l-0.034816-0.03072z m192.178176 65.135616l-11.947008-62.109696c-4.235264 0.719872-5.351424 2.622464-8.336384 4.000768l-4.793344 1.021952-1.216512 2.003968h-2.332672v0.982016h-2.36032v0.98816h-2.400256l-1.210368 1.9968-7.12704 2.070528-1.210368 1.970176-7.1936 1.970176-1.149952 2.036736-7.153664 2.003968-1.250304 2.030592-4.759552 0.98816v0.982016h-2.36032l-1.183744 2.003968-3.610624 1.014784c1.378304 1.11616 0 0.36352 2.393088 0.98816 2.494464 2.003968 5.317632 3.644416 8.370176 5.055488h2.400256l1.183744 2.003968h2.36032v0.982016h2.434048v0.98816h2.326528l1.216512 2.003968 7.187456 1.9968 1.149952 2.036736 7.187456 1.970176 1.216512 2.003968 7.12704 2.036736 1.210368 2.003968 7.159808 1.9968 1.183744 2.003968 7.153664 2.003968c0.43008 0.658432 0.854016 1.31072 1.216512 2.003968l7.118848 1.96608z m-100.257792-21.044224c-2.562048 3.152896-4.759552 2.130944-8.336384 4.040704l-1.216512 2.003968-7.153664 1.9968-1.216512 2.003968-7.119872 2.003968-1.216512 2.003968-7.159808 2.036736-1.176576 1.936384-7.1936 2.030592-1.176576 2.003968-7.159808 2.036736-1.216512 1.970176-7.119872 2.003968-1.183744 2.003968-7.187456 2.030592-1.183744 2.003968-7.153664 2.003968-1.216512 1.970176-7.159808 2.036736-1.176576 2.003968-7.159808 2.003968v1.014784h185.024512v-1.014784l-93.140992-44.12928z m0 0"  /></svg>